<?xml version="1.0" standalone="no"?>
<!DOCTYPE svg PUBLIC "-//W3C//DTD SVG 20010904//EN"
 "http://www.w3.org/TR/2001/REC-SVG-20010904/DTD/svg10.dtd">
<svg version="1.0" xmlns="http://www.w3.org/2000/svg"
 width="700.000000pt" height="700.000000pt" viewBox="0 0 700.000000 700.000000"
 preserveAspectRatio="xMidYMid meet">
<metadata>
Created by potrace 1.14, written by Peter Selinger 2001-2017
</metadata>
<g transform="translate(0.000000,700.000000) scale(0.100000,-0.100000)"
fill="#000000" stroke="none">
<path d="M1841 5829 c-75 -16 -114 -102 -75 -169 34 -56 52 -60 283 -60 l211
0 55 -110 c30 -60 55 -113 55 -117 0 -5 -132 -8 -293 -9 -291 0 -292 0 -347
-26 -96 -43 -175 -134 -200 -228 -29 -110 -4 -229 67 -314 76 -91 160 -125
314 -128 60 -2 109 -6 109 -10 0 -5 -78 -162 -172 -351 l-173 -342 -65 1
c-142 1 -167 -18 -346 -258 -71 -95 -136 -181 -144 -190 -12 -15 -32 -18 -128
-18 -108 0 -141 -7 -167 -34 -11 -11 -126 -190 -481 -744 l-100 -157 -81 0
c-88 0 -124 -16 -151 -66 -16 -31 -9 -95 15 -121 31 -34 55 -41 153 -45 82 -3
130 -8 258 -28 118 -19 342 -110 469 -191 151 -97 400 -194 563 -219 25 -4 52
-9 61 -10 93 -17 384 -24 477 -11 23 3 61 9 85 12 66 8 165 32 252 60 82 27
299 128 369 172 73 45 212 111 302 141 163 56 289 74 499 74 148 0 167 -6 330
-98 221 -124 386 -191 545 -219 52 -10 151 -35 220 -56 235 -74 346 -91 575
-92 143 -1 232 6 345 28 88 16 240 59 290 81 119 52 192 89 264 132 249 150
475 218 750 225 59 2 91 7 110 19 82 54 65 176 -29 207 -46 15 -241 4 -370
-21 -27 -5 -59 -11 -70 -13 -123 -24 -303 -97 -465 -190 -47 -26 -107 -59
-134 -73 l-49 -25 39 49 c22 26 41 50 44 53 3 3 39 46 80 95 41 50 82 99 92
110 29 35 192 230 233 280 59 72 204 246 229 275 11 14 41 50 66 80 66 81 72
88 142 171 34 41 79 95 99 120 20 24 54 64 74 89 69 82 87 154 61 244 -11 38
-28 65 -56 92 -74 70 -47 67 -640 69 l-535 2 -115 83 c-63 46 -144 105 -180
131 -36 26 -146 106 -245 178 -99 72 -191 139 -204 148 -13 10 -128 93 -254
186 l-231 167 -55 108 c-100 193 -260 324 -461 378 -58 16 -130 18 -711 19
-355 1 -651 5 -657 9 -11 7 -112 203 -112 218 0 4 145 8 323 8 305 0 324 1
355 20 79 48 73 166 -9 201 -24 9 -183 12 -679 13 -357 1 -663 -2 -679 -5z"/>
<path d="M59 1847 c-44 -30 -61 -63 -55 -110 9 -76 55 -103 181 -105 251 -5
507 -82 718 -216 153 -97 415 -198 572 -221 22 -4 47 -8 55 -10 75 -22 409
-22 550 -1 236 36 420 105 665 251 39 22 97 54 130 69 70 33 244 91 295 99 19
3 64 11 100 17 103 18 395 15 498 -5 75 -14 199 -48 253 -68 71 -27 220 -100
259 -127 14 -10 72 -42 130 -72 160 -84 345 -141 540 -168 92 -13 365 -17 445
-6 259 34 490 113 688 234 37 23 69 42 71 42 2 0 32 16 65 34 34 19 61 33 61
30 0 -3 12 1 28 9 107 58 322 103 532 112 86 3 87 4 118 30 59 50 51 136 -16
182 -31 20 -42 22 -150 18 -64 -3 -130 -7 -147 -10 -16 -3 -59 -10 -95 -16
-189 -32 -366 -100 -561 -215 -178 -105 -305 -156 -487 -196 -121 -26 -422
-34 -547 -13 -163 26 -333 81 -445 143 -25 14 -61 34 -80 45 -19 10 -39 22
-45 27 -5 4 -44 25 -85 47 -138 74 -304 132 -460 162 -109 20 -148 23 -320 26
-192 2 -342 -15 -491 -55 -24 -7 -53 -16 -64 -20 -11 -4 -63 -24 -116 -44 -53
-20 -155 -71 -225 -112 -133 -78 -172 -98 -265 -134 -108 -43 -191 -65 -344
-90 -68 -11 -334 -10 -420 2 -184 24 -379 91 -535 184 -312 184 -545 258 -856
269 -103 4 -114 3 -145 -18z"/>
</g>
</svg>
