<?xml version="1.0"?>
<svg xmlns="http://www.w3.org/2000/svg" xmlns:xlink="http://www.w3.org/1999/xlink" xmlns:svgjs="http://svgjs.com/svgjs" version="1.1" width="512" height="512" x="0" y="0" viewBox="0 0 55.32 55.32" style="enable-background:new 0 0 512 512" xml:space="preserve" class=""><g>
<g xmlns="http://www.w3.org/2000/svg">
	<path d="M2.26,42.837c6.822,1.094,25.092,2.942,50.571-2.771c1.616-0.363,2.897,0.685,2.368,2.255   c-1.502,4.452-7.064,12.316-27.666,11.534C8.55,53.134,2.335,48.264,0.301,45.074C-0.589,43.677,0.624,42.575,2.26,42.837z" fill="#ffffff" data-original="#000000" style="" class=""/>
	<path d="M29.924,39.545c4.256,0.151,12.176,0.137,17.969-1.614c1.586-0.479,2.693-2.421,2.387-4.05   C48.957,26.864,43.48,9.277,21.346,1.583c-1.565-0.544-2.147,0.233-1.377,1.699c2.788,5.305,8.437,18.123,7.28,33.12   C27.122,38.054,28.269,39.487,29.924,39.545z" fill="#ffffff" data-original="#000000" style="" class=""/>
	<path d="M23.463,19.647c0.824,4.441,1.864,12.962-0.827,18.669c-0.707,1.498-2.957,2.518-4.614,2.518h-7.99   c-1.657,0-2.115-1.011-1.061-2.289c3.155-3.825,9.385-11.812,12.719-19.056C22.383,17.984,23.162,18.018,23.463,19.647z" fill="#ffffff" data-original="#000000" style="" class=""/>
</g>
<g xmlns="http://www.w3.org/2000/svg">
</g>
<g xmlns="http://www.w3.org/2000/svg">
</g>
<g xmlns="http://www.w3.org/2000/svg">
</g>
<g xmlns="http://www.w3.org/2000/svg">
</g>
<g xmlns="http://www.w3.org/2000/svg">
</g>
<g xmlns="http://www.w3.org/2000/svg">
</g>
<g xmlns="http://www.w3.org/2000/svg">
</g>
<g xmlns="http://www.w3.org/2000/svg">
</g>
<g xmlns="http://www.w3.org/2000/svg">
</g>
<g xmlns="http://www.w3.org/2000/svg">
</g>
<g xmlns="http://www.w3.org/2000/svg">
</g>
<g xmlns="http://www.w3.org/2000/svg">
</g>
<g xmlns="http://www.w3.org/2000/svg">
</g>
<g xmlns="http://www.w3.org/2000/svg">
</g>
<g xmlns="http://www.w3.org/2000/svg">
</g>
</g></svg>
