<svg height="512pt" viewBox="0 0 512 512" width="512pt" xmlns="http://www.w3.org/2000/svg">
<path d="m512 256c0 141.386719-114.613281 256-256 256s-256-114.613281-256-256 114.613281-256 256-256 256 114.613281 256 256zm0 0" fill="#9330b2"/><path d="m511.972656 258.1875-130.25-130.25c-22.742187-24.738281-55.351562-40.273438-91.527344-40.273438h-68.390624c-68.5625 0-124.339844 55.78125-124.339844 124.34375v47.523438c0 32.765625 13.28125 64.335938 36.207031 87.503906v62.789063c0 4.96875 2.132813 9.632812 5.75 12.878906l88.238281 87.726563c9.308594 1.027343 18.761719 1.570312 28.339844 1.570312 140.652344 0 254.796875-113.4375 255.972656-253.8125zm0 0" fill="#681f7b"/><path d="m290.195312 87.667969h-68.390624c-68.5625 0-124.339844 55.777343-124.339844 124.339843v47.527344c0 32.761719 13.28125 64.332032 36.207031 87.5v62.789063c0 6.179687 3.296875 11.886719 8.644531 14.980469 2.679688 1.546874 5.667969 2.320312 8.65625 2.320312 2.984375 0 5.96875-.769531 8.640625-2.3125l71.011719-40.9375h59.570312c68.5625 0 124.339844-55.777344 124.339844-124.339844v-47.527344c0-68.5625-55.777344-124.339843-124.339844-124.339843zm97.863282 173.8125c0 52.164062-42.679688 94.847656-94.847656 94.847656h-55.722657l-87.378906 53.496094v-83.132813c-16.183594-17.035156-26.167969-40.003906-26.167969-65.207031v-51.425781c0-52.164063 42.679688-94.84375 94.84375-94.84375h74.425782c52.164062 0 94.847656 42.679687 94.847656 94.84375zm0 0" fill="#fff"/><path d="m290.199219 87.667969h-34.199219v27.546875h37.214844c52.160156 0 94.839844 42.679687 94.839844 94.839844v51.429687c0 52.164063-42.679688 94.84375-94.839844 94.84375h-37.214844v27.546875h34.199219c68.558593 0 124.339843-55.78125 124.339843-124.339844v-47.527344c0-68.566406-55.78125-124.339843-124.339843-124.339843zm0 0" fill="#fff5cb"/><path d="m237.910156 164.320312c-.339844-.335937-.628906-.734374-.855468-1.1875-1.117188-2.246093-.203126-4.972656 2.042968-6.09375 24.066406-11.988281 55.921875-5.316406 77.460938 16.222657 21.53125 21.53125 28.207031 53.371093 16.230468 77.429687-1.117187 2.246094-3.84375 3.160156-6.09375 2.042969-2.246093-1.117187-3.160156-3.84375-2.042968-6.089844 10.261718-20.613281 4.289062-48.148437-14.519532-66.960937-18.816406-18.816406-46.363281-24.78125-66.984374-14.507813-1.792969.890625-3.894532.488281-5.238282-.855469zm0 0" fill="#fff"/><path d="m332.789062 250.695312c-1.113281 2.238282-3.847656 3.15625-6.089843 2.042969-2.246094-1.125-3.164063-3.847656-2.042969-6.097656 10.257812-20.613281 4.28125-48.140625-14.523438-66.957031-15.113281-15.113282-35.863281-21.933594-54.132812-18.703125v-9.195313c20.734375-3.0625 43.773438 4.695313 60.558594 21.472656 21.53125 21.539063 28.207031 53.378907 16.230468 77.4375zm0 0" fill="#fff5cb"/><path d="m248.230469 184.320312c-.363281-.367187-.671875-.796874-.902344-1.289062-1.066406-2.273438-.085937-4.976562 2.1875-6.039062 16.542969-7.738282 37.421875-3.175782 51.953125 11.355468 14.527344 14.53125 19.097656 35.394532 11.371094 51.925782-1.066406 2.273437-3.769532 3.253906-6.042969 2.191406-2.269531-1.0625-3.25-3.769532-2.191406-6.039063 6.117187-13.078125 2.273437-29.816406-9.5625-41.652343-11.835938-11.835938-28.582031-15.675782-41.675781-9.550782-1.78125.832032-3.824219.410156-5.136719-.902344zm0 0" fill="#fff"/><path d="m312.835938 240.273438c-1.0625 2.269531-3.765626 3.25-6.035157 2.1875s-3.261719-3.765626-2.199219-6.035157c6.121094-13.082031 2.28125-29.816406-9.550781-41.648437-11.0625-11.058594-26.402343-15.144532-39.050781-10.636719v-9.5c15.25-4.066406 32.789062 1.019531 45.46875 13.710937 14.535156 14.523438 19.09375 35.394532 11.367188 51.921876zm0 0" fill="#fff5cb"/><path d="m258.4375 204.289062c-.441406-.4375-.796875-.976562-1.03125-1.597656-.890625-2.34375.289062-4.96875 2.632812-5.859375 8.726563-3.3125 19.082032-.738281 26.382813 6.5625s9.882813 17.652344 6.574219 26.367188c-.886719 2.347656-3.511719 3.527343-5.855469 2.636719-2.347656-.890626-3.527344-3.511719-2.636719-5.859376 2.007813-5.296874.195313-12.015624-4.507812-16.71875-4.699219-4.703124-11.425782-6.507812-16.730469-4.492187-1.726563.652344-3.601563.1875-4.828125-1.039063zm0 0" fill="#fff"/><path d="m258.4375 204.289062c-.441406-.4375-.796875-.976562-1.03125-1.597656-.890625-2.34375.289062-4.96875 2.632812-5.859375 8.726563-3.3125 19.082032-.738281 26.382813 6.5625s9.882813 17.652344 6.574219 26.367188c-.886719 2.347656-3.511719 3.527343-5.855469 2.636719-2.347656-.890626-3.527344-3.511719-2.636719-5.859376 2.007813-5.296874.195313-12.015624-4.507812-16.71875-4.699219-4.703124-11.425782-6.507812-16.730469-4.492187-1.726563.652344-3.601563.1875-4.828125-1.039063zm0 0" fill="#fff5cb"/><path d="m225.640625 196.320312-31.539063-31.539062c-4.007812-4.003906-9.667968-4.945312-12.582031-2.035156l-3.046875 3.050781c-14.859375 14.855469-17.609375 36.515625-5.539062 51.234375 14.980468 18.257812 31.648437 36.757812 47.671875 52.167969 15.410156 16.023437 33.910156 32.691406 52.167969 47.671875 14.71875 12.070312 36.378906 9.320312 51.234374-5.535156l3.050782-3.050782c2.910156-2.910156 1.96875-8.574218-2.039063-12.578125l-31.539062-31.539062c-7.484375-7.488281-12.421875-6.453125-15.335938-3.542969 0 0-3.976562 4.042969-4.703125 4.878906v-.011718c-2.835937 2.839843-10.019531 3.472656-16.507812-.589844-5.90625-3.703125-12.019532-9.078125-17.511719-14.519532-5.441406-5.492187-10.816406-11.605468-14.519531-17.511718-4.0625-6.488282-3.429688-13.671875-.589844-16.507813h-.011719c.835938-.726562 4.878907-4.703125 4.878907-4.703125 2.914062-2.914062 3.945312-7.851562-3.539063-15.339844zm0 0" fill="#fff"/><path d="m327.0625 308.28125-3.054688 3.054688c-14.855468 14.855468-36.519531 17.601562-51.234374 5.53125-5.601563-4.589844-11.222657-9.347657-16.773438-14.195313v-38.371094c.308594.207031.628906.402344.9375.601563 6.480469 4.0625 13.671875 3.421875 16.507812.585937v.023438c.722657-.847657 4.703126-4.882813 4.703126-4.882813 2.910156-2.917968 7.851562-3.949218 15.332031 3.539063l31.539062 31.539062c4.003907 4.003907 4.953125 9.667969 2.042969 12.574219zm0 0" fill="#fff5cb"/>
</svg>