<?xml version="1.0" encoding="iso-8859-1"?>
<!-- Generator: Adobe Illustrator 21.0.0, SVG Export Plug-In . SVG Version: 6.00 Build 0)  -->
<svg version="1.1" id="Capa_1" xmlns="http://www.w3.org/2000/svg" xmlns:xlink="http://www.w3.org/1999/xlink" x="0px" y="0px"
	 viewBox="0 0 512.027 512.027" style="enable-background:new 0 0 512.027 512.027;" xml:space="preserve">
<g>
	<g transform="translate(2 5)">
		<g>
			<g>
				<polygon style="fill:#CFD8DC;" points="416.133,225.397 262.533,225.397 157.659,242.463 126,242.463 126,225.397 
					160.133,157.13 156.379,148.597 277.808,147.487 311.6,147.146 322.267,157.13 				"/>
				<path style="fill:#CFD8DC;" d="M499.419,239.477L398.896,360.394c-7.005,1.045-14.08,1.558-21.163,1.536
					c-5.734,0.036-11.463-0.306-17.152-1.024c1.451-0.085,2.816-0.341,4.181-0.512l100.523-120.917
					c2.165-2.531,2.659-6.091,1.266-9.117s-4.42-4.964-7.751-4.963h34.133c3.331,0,6.358,1.938,7.751,4.963
					S501.584,236.945,499.419,239.477z"/>
			</g>
			<g>
				<polygon style="fill:#F4F4F4;" points="382,225.397 262.533,225.397 157.659,242.463 126,242.463 126,225.397 160.133,157.13 
					156.379,148.597 277.808,147.487 288.133,157.13 				"/>
				<path style="fill:#F4F4F4;" d="M465.285,239.477L364.763,360.394c-1.365,0.171-2.731,0.427-4.181,0.512
					c-5.632,0.715-11.305,1.057-16.981,1.024c-55.637,0-61.269-27.563-106.752-33.109c-45.397,5.547-51.029,33.109-106.581,33.109
					c-5.705,0.036-11.407-0.306-17.067-1.024c-41.387-5.035-49.749-28.416-93.013-32.512l44.203-68.864h22.528l104.875-17.067
					h-34.133l104.875-17.067H458.8c3.331,0,6.358,1.938,7.751,4.963S467.451,236.945,465.285,239.477z"/>
			</g>
		</g>
		<path style="fill:none;stroke:#000000;stroke-width:2;stroke-linecap:round;stroke-linejoin:round;" d="M179.845,351.349h-0.085"
			/>
		<g>
			<g>
				<path style="fill:#283593;" d="M296.667,225.397v17.067c-0.028,9.414-7.653,17.039-17.067,17.067H83.333l23.04-30.72
					c1.624-2.134,4.145-3.395,6.827-3.413H296.667z"/>
				<path style="fill:#283593;" d="M322.267,157.13H134.533c-9.397-0.07-16.997-7.67-17.067-17.067
					c0.028-9.414,7.653-17.039,17.067-17.067h144.299c16.147,0.001,30.91,9.116,38.144,23.552L322.267,157.13z"/>
			</g>
			<g>
				<path style="fill:#3F51B5;" d="M271.067,225.397v17.067c-0.028,9.414-7.653,17.039-17.067,17.067H83.333l23.04-30.72
					c1.624-2.134,4.145-3.395,6.827-3.413H271.067z"/>
				<path style="fill:#3F51B5;" d="M296.667,157.13H134.533c-9.397-0.07-16.997-7.67-17.067-17.067
					c0.028-9.414,7.653-17.039,17.067-17.067h118.699c16.147,0.001,30.91,9.116,38.144,23.552L296.667,157.13z"/>
			</g>
			<path style="fill:#1566C0;" d="M369.2,191.263H245.467c-9.414-0.028-17.039-7.653-17.067-17.067V157.13h93.867L369.2,191.263z"/>
			<path style="fill:#2296F3;" d="M330.8,191.263h-85.333c-9.414-0.028-17.039-7.653-17.067-17.067V157.13h55.467L330.8,191.263z"/>
		</g>
	</g>
	<g>
		<path d="M503.467,324.263c-23.301-0.547-46.251,5.755-66.005,18.125c-3.746,2.065-7.441,4.105-11.324,5.973l81.792-98.338
			c4.333-5.066,5.32-12.192,2.526-18.245s-8.856-9.925-15.523-9.915h-74.027l-89.933-65.408l-4.352-8.695
			c-8.624-17.387-26.382-28.36-45.79-28.297h-87.825l-8.533-17.067H230.4c4.713,0,8.533-3.821,8.533-8.533s-3.821-8.533-8.533-8.533
			h-93.867c-4.713,0-8.533,3.821-8.533,8.533s3.821,8.533,8.533,8.533h28.86l8.533,17.067h-37.393c-14.138,0-25.6,11.462-25.6,25.6
			c0,14.139,11.462,25.6,25.6,25.6h11.793l-25.6,51.2H115.2c-5.369,0.011-10.423,2.538-13.653,6.827l-20.48,27.307H66.389
			c-2.907-0.001-5.615,1.478-7.185,3.925l-41.506,64.666c-2.944-0.171-5.914-0.324-9.165-0.324c-4.713,0-8.533,3.82-8.533,8.533
			s3.821,8.533,8.533,8.533c20.405-0.491,40.498,5.08,57.737,16.009c19.75,12.373,42.698,18.675,65.997,18.125
			c18.26,0.529,36.382-3.325,52.847-11.238l0.119-0.06c4.548-2.193,8.798-4.523,12.996-6.827
			c17.228-10.924,37.309-16.495,57.702-16.009c20.413-0.493,40.515,5.078,57.762,16.009c19.764,12.376,42.727,18.678,66.039,18.125
			c23.301,0.547,46.251-5.755,66.005-18.125c17.238-10.924,37.326-16.494,57.728-16.009c4.713,0,8.533-3.821,8.533-8.533
			S508.18,324.263,503.467,324.263z M238.933,170.663h82.56l23.467,17.067h-97.493c-4.713,0-8.533-3.821-8.533-8.533V170.663z
			 M128,145.063c0-4.713,3.821-8.533,8.533-8.533h144.299c12.176-0.021,23.425,6.495,29.466,17.067H136.533
			C131.821,153.597,128,149.776,128,145.063z M167.407,170.663h54.46v8.533c0,14.138,11.462,25.6,25.6,25.6h120.96l23.467,17.067
			H141.807L167.407,170.663z M115.2,238.93h174.933v8.533c0,4.713-3.821,8.533-8.533,8.533H102.4L115.2,238.93z M321.937,342.388
			c-19.755-12.37-42.704-18.671-66.005-18.125c-23.288-0.546-46.224,5.756-65.963,18.125
			c-17.227,10.926-37.308,16.498-57.702,16.009c-20.408,0.492-40.504-5.079-57.745-16.009c-11.792-7.123-24.65-12.309-38.084-15.36
			l34.611-53.965H281.6c14.138,0,25.6-11.461,25.6-25.6v-8.533h25.6v25.6c0,4.713,3.82,8.533,8.533,8.533s8.533-3.82,8.533-8.533
			v-25.6h17.067v25.6c0,4.713,3.821,8.533,8.533,8.533c4.713,0,8.533-3.82,8.533-8.533v-25.6h17.067v25.6
			c0,4.713,3.821,8.533,8.533,8.533c4.713,0,8.533-3.82,8.533-8.533v-25.549h76.723l-98.33,118.323
			c-5.568,0.735-11.178,1.099-16.794,1.092C359.308,358.896,339.194,353.325,321.937,342.388z"/>
		<path d="M503.467,375.463c-23.301-0.547-46.251,5.755-66.005,18.125c-17.238,10.924-37.326,16.494-57.728,16.009
			c-20.413,0.493-40.515-5.078-57.762-16.009c-19.764-12.376-42.727-18.678-66.039-18.125c-23.288-0.546-46.224,5.756-65.963,18.125
			c-17.227,10.926-37.308,16.498-57.702,16.009c-20.408,0.492-40.504-5.079-57.745-16.009
			c-19.747-12.371-42.692-18.674-65.988-18.125c-4.713,0-8.533,3.82-8.533,8.533s3.821,8.533,8.533,8.533
			c20.405-0.491,40.498,5.08,57.737,16.009c19.75,12.373,42.698,18.675,65.997,18.125c23.289,0.548,46.226-5.757,65.963-18.133
			c17.229-10.921,37.309-16.489,57.702-16c20.413-0.493,40.515,5.078,57.762,16.009c19.764,12.376,42.727,18.678,66.039,18.125
			c23.301,0.547,46.251-5.755,66.005-18.125c17.238-10.924,37.326-16.494,57.728-16.009c4.713,0,8.533-3.82,8.533-8.533
			S508.18,375.463,503.467,375.463z"/>
	</g>
</g>
<g>
</g>
<g>
</g>
<g>
</g>
<g>
</g>
<g>
</g>
<g>
</g>
<g>
</g>
<g>
</g>
<g>
</g>
<g>
</g>
<g>
</g>
<g>
</g>
<g>
</g>
<g>
</g>
<g>
</g>
</svg>
