<?xml version="1.0" encoding="iso-8859-1"?>
<!-- Generator: Adobe Illustrator 19.0.0, SVG Export Plug-In . SVG Version: 6.00 Build 0)  -->
<svg version="1.1" id="Capa_1" xmlns="http://www.w3.org/2000/svg" xmlns:xlink="http://www.w3.org/1999/xlink" x="0px" y="0px"
	 viewBox="0 0 512 512" style="enable-background:new 0 0 512 512;" xml:space="preserve">
<path style="fill:#97A6AB;" d="M255.997,0c-32.64,0-59.102,26.46-59.102,59.102c0,32.64,26.46,59.102,59.102,59.102
	s59.102-26.46,59.102-59.102C315.098,26.46,288.637,0,255.997,0z M255.997,83.537c-13.496,0-24.437-10.941-24.437-24.437
	s10.941-24.437,24.437-24.437c13.496,0,24.437,10.941,24.437,24.437S269.492,83.537,255.997,83.537z"/>
<path style="fill:#738184;" d="M210.618,59.102c0-30.319,22.834-55.29,52.24-58.692C260.605,0.149,258.318,0,255.997,0
	c-32.64,0-59.102,26.46-59.102,59.102c0,32.64,26.46,59.102,59.102,59.102c2.322,0,4.609-0.149,6.861-0.41
	C233.452,114.392,210.618,89.42,210.618,59.102z"/>
<path style="fill:#97A6AB;" d="M436.647,397.818l-16.775-16.775c0,0-29.675,63.319-112.978,92.466
	c-20.839,7.263-41.604,21.451-50.862,38.49c-9.248-17.039-30.097-31.227-50.947-38.49c-83.208-29.147-112.967-92.466-112.967-92.466
	l-16.775,16.775C40.738,332.947,89.436,270.23,89.436,270.23c0,73.528,60.553,86.502,60.553,86.502l-30.277,7.527
	c5.711,14.621,16.173,26.899,28.461,37.022c32.525,26.899,81.825,3.03,81.825-39.187V183.221h52.076v178.873
	c0,42.216,49.3,66.085,81.825,39.187c10.641-8.741,19.899-19.203,25.864-31.227c0.95-1.9,1.816-3.811,2.597-5.711l-30.277-7.611
	c0,0,60.553-12.974,60.553-86.502c0,0,0,0,0.011,0.011C423.525,271.381,470.935,333.549,436.647,397.818z"/>
<path style="fill:#738184;" d="M247.286,190.115v243.86c0,6.244-5.647,10.956-11.792,9.849
	c-21.332-3.838-66.082-14.91-87.325-42.544c32.525,26.899,81.825,3.03,81.825-39.187V183.221h8.773L247.286,190.115z"/>
<path style="fill:#CC7D0A;" d="M347.491,125.213c-59.896-16.385-123.092-16.385-182.988,0c0,17.577,0,35.154,0,52.731
	c59.896,16.385,123.092,16.385,182.988,0C347.491,160.367,347.491,142.79,347.491,125.213z"/>
<path style="fill:#AD6405;" d="M164.503,155.776c0,7.39,0,14.778,0,22.168c59.896,16.385,123.092,16.385,182.988,0
	c0-7.39,0-14.778,0-22.168C287.595,172.162,224.398,172.162,164.503,155.776z"/>
<g>
	<path style="fill:#738184;" d="M96.506,379.086l-4.393,1.957l-16.775,16.775c-34.605-64.871,14.093-127.589,14.093-127.589
		s-16.248,51.963,11.435,94.329C104.214,369.682,102.096,376.595,96.506,379.086z"/>
	<path style="fill:#738184;" d="M394.503,365.034l-2.142-0.691l-30.277-7.611c0,0,60.553-12.974,60.553-86.502c0,0,0,0,0.011,0.011
		c0.372,1.001,20.388,54.184-6.429,88.265C411.092,365.021,402.394,367.58,394.503,365.034z"/>
</g>
<g>
</g>
<g>
</g>
<g>
</g>
<g>
</g>
<g>
</g>
<g>
</g>
<g>
</g>
<g>
</g>
<g>
</g>
<g>
</g>
<g>
</g>
<g>
</g>
<g>
</g>
<g>
</g>
<g>
</g>
</svg>
