<svg enable-background="new 0 0 256 256" height="512" viewBox="0 0 256 256" width="512" xmlns="http://www.w3.org/2000/svg"><path d="m201.682 201.749c-1.058-.472-1.46-1.748-.883-2.752 57.091-99.484-29.84-190.609-103.322-170.304-61.25 16.924-57.762 55.873-54.754 68.762.668 2.863.337 5.862-.884 8.536-3.313 7.258-8.668 21.473-1.662 24.954 2.098 1.042 4.9.733 6.863-.508s7.131 8.714 26.108-13.183c6.693-7.723 20.345-11.995 36.083-12.129.681 3.509 1.992 7.381 4.171 11.624 11.789 22.956 37.723 20.696 46.147 19.278.978-.165 1.237-1.43.413-1.982-10.035-6.719-13.812-14.932-14.776-22.301 15.929 6.195 30.442 16.89 38.905 32.758 14.338 26.883 5.681 44.515 2.211 49.863-.59.909-1.801 1.126-2.717.547-5.747-3.629-17.783-2.926-25.771 5.062-8.759 8.759-17.517 7.786-17.517 7.786 21.41 29.196 44.767 6.812 44.767 6.812-3.893 36.981 32.115 38.928 32.115 38.928s-3.893-2.92 0-24.33c3.149-17.317-10.257-25.085-15.497-27.421z" fill="#46baf9"/><path d="m159.962 134.046c-16.588-11.105-16.092-26.3-14.018-35.001.345-1.447.499-2.906.475-4.343l-10.325-5.157c-3.35-1.673-7.042-2.547-10.787-2.553l-13.318-.021c-1.328 2.023-2.304 4.322-2.818 6.83-1.197 5.84-.635 13.474 4.231 22.95 11.789 22.956 37.723 20.696 46.147 19.278.977-.167 1.237-1.432.413-1.983z" fill="#46baf9"/><path d="m109.171 93.799c.185-.905.451-1.771.751-2.619-19.438 3.125-27.662 14.733-30.762 21.091 7.41-4.56 18.136-7.046 30.07-7.147v.001c-.84-4.326-.72-8.101-.059-11.326z" fill="#d9f3ff"/><path d="m194.273 150.411c-.367-2.903-1.105-5.755-2.177-8.478-6.73-18.674-19.571-33.906-35.066-43.632-1.062-.666-2.175-1.246-3.312-1.773-1.476-.684-2.999-1.266-4.566-1.705-.856-.24-1.703-.469-2.539-.687l-.194.566c.024 1.438-.13 2.896-.475 4.343-.819 3.437-1.387 7.889-.758 12.7 15.929 6.195 30.442 16.89 38.905 32.758 6.927 12.988 8.48 23.809 7.85 32.136 2.289-6.163 3.782-14.754 2.332-26.228z" fill="#d9f3ff"/><path d="m121.481 127.315c-3.061-2.726-5.829-6.183-8.08-10.566-2.179-4.244-3.49-8.115-4.171-11.624-6.396.054-12.45.788-17.829 2.164.146 1.35.358 2.757.661 4.238 4.56 22.238 27.067 26.458 34.543 27.249.869.092 1.388-.92.819-1.583-2.877-3.359-4.773-6.679-5.943-9.878z" fill="#46baf9"/><path d="m159.96 2.689c-37.589-2.66-51.325 23.779-51.325 23.779l.015.007c14.83-1.863 29.877.478 43.9 6.234.679-13.475 5.828-22.603 8.87-26.882.897-1.261.083-3.029-1.46-3.138z" fill="#46baf9"/><path d="m66.268 80.954c-.965 0-1.884-.562-2.294-1.503-1.839-4.227.104-9.162 4.33-11 4.227-1.838 9.161.104 11 4.33.551 1.266-.029 2.739-1.295 3.29-1.269.551-2.74-.029-3.29-1.295-.739-1.699-2.721-2.479-4.42-1.74s-2.479 2.722-1.74 4.42c.551 1.266-.029 2.739-1.295 3.29-.325.141-.663.208-.996.208z"/><path d="m149.755 139.326c-11.912 0-29.33-3.428-38.578-21.435-4.503-8.771-6.002-17.044-4.456-24.593.565-2.758 1.634-5.349 3.177-7.7.757-1.154 2.309-1.476 3.462-.718 1.154.758 1.476 2.308.718 3.462-1.194 1.819-2.021 3.824-2.458 5.959-1.313 6.406.035 13.574 4.005 21.306 9.729 18.945 30.188 19.426 40.054 18.418-15.042-11.846-14.164-27.182-12.168-35.559.291-1.222.428-2.474.406-3.721-.023-1.38 1.077-2.519 2.458-2.542h.043c1.361 0 2.476 1.091 2.499 2.458.028 1.665-.154 3.335-.543 4.965-2.217 9.307-1.767 22.472 12.975 32.342 1.235.827 1.833 2.297 1.521 3.747-.31 1.443-1.452 2.534-2.911 2.78-2.211.37-5.839.831-10.204.831zm8.813-3.205h.01z"/><path d="m217.18 256c-.045 0-.091-.001-.136-.003-.684-.037-16.864-1.042-26.991-12.921-5.208-6.109-7.816-13.91-7.784-23.244-4.293 2.764-11.302 6.062-19.56 5.341-9.033-.787-17.252-6.148-24.428-15.934-.587-.8-.646-1.872-.148-2.73.497-.859 1.452-1.342 2.44-1.233.295.031 7.762.644 15.474-7.068 8.495-8.496 21.401-9.747 28.451-5.663 11.199-17.916.853-40.367-2.613-46.865-8.338-15.633-21.956-24.676-33.25-29.776 1.944 6.317 6.206 11.707 12.717 16.065 1.235.828 1.833 2.299 1.521 3.747-.31 1.441-1.452 2.532-2.909 2.778-8.255 1.389-36.15 4.006-48.787-20.602-1.78-3.466-3.101-6.896-3.94-10.226-14.519.465-26.464 4.606-32.201 11.226-9.062 10.457-16.928 15.757-23.381 15.757-.056 0-.111 0-.166-.001-2.127-.03-3.691-.646-4.741-1.277-2.507.979-5.415.942-7.684-.186-6.606-3.282-6.433-13.044.5-28.23.999-2.188 1.256-4.649.724-6.93-2.887-12.367-7.344-54.092 56.522-71.739 17.756-4.907 36.867-3.683 55.264 3.538 17.804 6.988 33.695 19.038 45.958 34.848 29.665 38.247 31.605 88.695 5.23 135.054 5.395 2.54 19.777 11.192 16.376 29.894-3.155 17.351-.951 21.684-.695 22.112.682.679.921 1.702.585 2.625-.36.989-1.302 1.643-2.348 1.643zm1.51-4.491c.001 0 .002.001.003.002-.001-.001-.002-.002-.003-.002zm-.005-.005c.001.001.003.002.004.003-.002-.001-.003-.002-.004-.003zm-.006-.004c.002.001.004.002.005.004-.001-.002-.003-.003-.005-.004zm-33.616-39.425c.375 0 .752.084 1.104.257.939.463 1.492 1.461 1.383 2.502-1.094 10.394 1.028 18.804 6.309 24.998 5.931 6.958 14.532 9.612 19.504 10.604-.683-3.855-.691-10.447 1.356-21.712 2.798-15.38-8.896-22.391-14.055-24.691-1.144-.51-2.021-1.484-2.409-2.672-.39-1.196-.253-2.511.375-3.607 25.642-44.682 23.941-93.287-4.549-130.019-11.711-15.099-26.868-26.599-43.834-33.258-17.382-6.822-35.4-7.988-52.104-3.373-25.545 7.057-42.328 18.684-49.883 34.558-6.066 12.745-4.548 25.034-3.103 31.225.782 3.352.411 6.954-1.044 10.143-5.218 11.428-6.326 19.937-2.825 21.677 1.236.615 3.093.454 4.415-.383 1.129-.712 2.506-.563 3.271.53.008 0 .865.852 2.846.793 2.779-.07 9-1.986 19.438-14.03 7.029-8.111 20.862-12.846 37.951-12.992 1.181.007 2.246.84 2.476 2.023.68 3.505 2.006 7.192 3.941 10.959 9.729 18.945 30.185 19.423 40.053 18.418-7.476-5.883-11.835-13.255-12.972-21.957-.115-.875.241-1.746.936-2.291s1.625-.683 2.449-.363c12.73 4.951 30.039 14.853 40.205 33.912 6.389 11.98 9.103 23.562 8.065 34.421-.856 8.966-4.104 15.113-5.963 17.979-1.315 2.027-4.072 2.61-6.148 1.301-4.595-2.901-15.442-2.511-22.669 4.715-5.299 5.299-10.647 7.346-14.411 8.113 5.517 6.292 11.533 9.762 17.929 10.333 11.226 1.01 20.149-7.339 20.237-7.424.476-.452 1.098-.689 1.726-.689zm17.638-12.61c.001 0 .002.001.003.001-.001 0-.002 0-.003-.001z"/><path d="m192.096 144.433c-1.024 0-1.984-.634-2.352-1.653-6.539-18.143-19.182-33.525-35.6-43.314-1.186-.707-1.574-2.242-.867-3.428s2.241-1.574 3.428-.867c17.409 10.38 30.813 26.686 37.742 45.914.469 1.299-.205 2.731-1.504 3.2-.28.1-.566.148-.847.148z"/><path d="m126.714 141.28c-.123 0-.247-.006-.372-.02-7.37-.78-31.8-5.192-36.73-29.232-.306-1.491-.534-2.954-.697-4.472-.133-1.236.662-2.382 1.866-2.69 5.594-1.431 11.794-2.186 18.428-2.242 1.181.007 2.246.84 2.476 2.023.68 3.505 2.006 7.192 3.941 10.959 1.975 3.847 4.505 7.157 7.519 9.841.308.274.544.621.686 1.009 1.141 3.122 2.989 6.187 5.494 9.108.932 1.087 1.104 2.606.44 3.871-.604 1.148-1.775 1.845-3.051 1.845zm-32.536-32.078c.097.607.208 1.212.333 1.822 1.306 6.369 6.69 21.006 28.649 24.755-1.597-2.274-2.871-4.622-3.805-7.017-3.271-3.017-6.021-6.671-8.179-10.872-1.78-3.466-3.101-6.897-3.94-10.227-4.632.148-9.008.663-13.058 1.539z"/><path d="m47.041 132.936c-.73 0-1.454-.318-1.947-.931-.867-1.075-.698-2.648.376-3.515 5.598-4.515 9.91-11.764 10.987-18.467.219-1.364 1.5-2.292 2.865-2.072 1.363.219 2.291 1.501 2.072 2.865-1.281 7.975-6.179 16.238-12.785 21.565-.463.374-1.017.555-1.568.555z"/><path d="m152.55 35.208c-.321 0-.644-.062-.949-.187-13.941-5.722-28.684-7.82-42.639-6.066-.457.058-.921-.013-1.34-.202-.626-.283-1.116-.814-1.341-1.463s-.181-1.365.136-1.975c.591-1.139 14.943-27.869 53.72-25.121 1.607.114 3.034 1.091 3.723 2.551.693 1.469.54 3.205-.401 4.529-2.863 4.027-7.763 12.702-8.411 25.56-.041.81-.473 1.55-1.157 1.985-.408.258-.873.389-1.341.389zm-33.892-11.854c10.542 0 21.289 1.961 31.666 5.803 1.253-11.559 5.604-19.705 8.541-24.034-25.865-1.509-39.716 11.482-45.188 18.378 1.653-.098 3.315-.147 4.981-.147z"/></svg>