<svg id="visual" viewBox="0 0 320 960" width="320" height="960" xmlns="http://www.w3.org/2000/svg" xmlns:xlink="http://www.w3.org/1999/xlink" version="1.1"><rect x="0" y="0" width="320" height="960" fill="#fff"></rect><path d="M0 58L13.3 53.5C26.7 49 53.3 40 80 41.8C106.7 43.7 133.3 56.3 160 61.5C186.7 66.7 213.3 64.3 240 61C266.7 57.7 293.3 53.3 306.7 51.2L320 49L320 0L306.7 0C293.3 0 266.7 0 240 0C213.3 0 186.7 0 160 0C133.3 0 106.7 0 80 0C53.3 0 26.7 0 13.3 0L0 0Z" fill="#28364a" stroke-linecap="round" stroke-linejoin="miter"></path></svg>