<svg id="visual" viewBox="0 0 540 960" width="540" height="960" xmlns="http://www.w3.org/2000/svg" xmlns:xlink="http://www.w3.org/1999/xlink" version="1.1"><rect x="0" y="0" width="540" height="960" fill="#fff"></rect><path d="M0 334L12.8 326.3C25.7 318.7 51.3 303.3 77 305.5C102.7 307.7 128.3 327.3 154 336.7C179.7 346 205.3 345 231.2 328.8C257 312.7 283 281.3 308.8 276.3C334.7 271.3 360.3 292.7 386 296.8C411.7 301 437.3 288 463 296.8C488.7 305.7 514.3 336.3 527.2 351.7L540 367L540 0L527.2 0C514.3 0 488.7 0 463 0C437.3 0 411.7 0 386 0C360.3 0 334.7 0 308.8 0C283 0 257 0 231.2 0C205.3 0 179.7 0 154 0C128.3 0 102.7 0 77 0C51.3 0 25.7 0 12.8 0L0 0Z" fill="#1d2835"></path><path d="M0 216L12.8 223.2C25.7 230.3 51.3 244.7 77 263C102.7 281.3 128.3 303.7 154 304C179.7 304.3 205.3 282.7 231.2 272.2C257 261.7 283 262.3 308.8 253.2C334.7 244 360.3 225 386 215.8C411.7 206.7 437.3 207.3 463 215C488.7 222.7 514.3 237.3 527.2 244.7L540 252L540 0L527.2 0C514.3 0 488.7 0 463 0C437.3 0 411.7 0 386 0C360.3 0 334.7 0 308.8 0C283 0 257 0 231.2 0C205.3 0 179.7 0 154 0C128.3 0 102.7 0 77 0C51.3 0 25.7 0 12.8 0L0 0Z" fill="#1f2b3a"></path><path d="M0 166L12.8 163.7C25.7 161.3 51.3 156.7 77 171.8C102.7 187 128.3 222 154 230C179.7 238 205.3 219 231.2 208C257 197 283 194 308.8 188.7C334.7 183.3 360.3 175.7 386 176.8C411.7 178 437.3 188 463 188.5C488.7 189 514.3 180 527.2 175.5L540 171L540 0L527.2 0C514.3 0 488.7 0 463 0C437.3 0 411.7 0 386 0C360.3 0 334.7 0 308.8 0C283 0 257 0 231.2 0C205.3 0 179.7 0 154 0C128.3 0 102.7 0 77 0C51.3 0 25.7 0 12.8 0L0 0Z" fill="#222f3f"></path><path d="M0 114L12.8 113.5C25.7 113 51.3 112 77 117.2C102.7 122.3 128.3 133.7 154 139.5C179.7 145.3 205.3 145.7 231.2 139.5C257 133.3 283 120.7 308.8 118.8C334.7 117 360.3 126 386 139C411.7 152 437.3 169 463 164.8C488.7 160.7 514.3 135.3 527.2 122.7L540 110L540 0L527.2 0C514.3 0 488.7 0 463 0C437.3 0 411.7 0 386 0C360.3 0 334.7 0 308.8 0C283 0 257 0 231.2 0C205.3 0 179.7 0 154 0C128.3 0 102.7 0 77 0C51.3 0 25.7 0 12.8 0L0 0Z" fill="#253244"></path><path d="M0 48L12.8 55.2C25.7 62.3 51.3 76.7 77 80.2C102.7 83.7 128.3 76.3 154 69.2C179.7 62 205.3 55 231.2 51.5C257 48 283 48 308.8 50.3C334.7 52.7 360.3 57.3 386 63.2C411.7 69 437.3 76 463 73.2C488.7 70.3 514.3 57.7 527.2 51.3L540 45L540 0L527.2 0C514.3 0 488.7 0 463 0C437.3 0 411.7 0 386 0C360.3 0 334.7 0 308.8 0C283 0 257 0 231.2 0C205.3 0 179.7 0 154 0C128.3 0 102.7 0 77 0C51.3 0 25.7 0 12.8 0L0 0Z" fill="#28364a"></path></svg>