<svg id="visual" viewBox="0 0 320 960" width="320" height="960" xmlns="http://www.w3.org/2000/svg" xmlns:xlink="http://www.w3.org/1999/xlink" version="1.1"><rect x="0" y="0" width="320" height="960" fill="#28364a"></rect><path d="M0 921L13.3 918.2C26.7 915.3 53.3 909.7 80 909.5C106.7 909.3 133.3 914.7 160 918.3C186.7 922 213.3 924 240 918.8C266.7 913.7 293.3 901.3 306.7 895.2L320 889L320 961L306.7 961C293.3 961 266.7 961 240 961C213.3 961 186.7 961 160 961C133.3 961 106.7 961 80 961C53.3 961 26.7 961 13.3 961L0 961Z" fill="#fff" stroke-linecap="round" stroke-linejoin="miter"></path></svg>