<svg id="visual" viewBox="0 0 320 960" width="320" height="960" xmlns="http://www.w3.org/2000/svg" xmlns:xlink="http://www.w3.org/1999/xlink" version="1.1"><rect x="0" y="0" width="320" height="960" fill="#28364a"></rect><path d="M0 885L10.7 888.5C21.3 892 42.7 899 64 905.7C85.3 912.3 106.7 918.7 128 921.5C149.3 924.3 170.7 923.7 192 912.8C213.3 902 234.7 881 256 873.3C277.3 865.7 298.7 871.3 309.3 874.2L320 877L320 961L309.3 961C298.7 961 277.3 961 256 961C234.7 961 213.3 961 192 961C170.7 961 149.3 961 128 961C106.7 961 85.3 961 64 961C42.7 961 21.3 961 10.7 961L0 961Z" fill="#fff" stroke-linecap="round" stroke-linejoin="miter"></path></svg>