<svg id="visual" viewBox="0 0 320 960" width="320" height="960" xmlns="http://www.w3.org/2000/svg" xmlns:xlink="http://www.w3.org/1999/xlink" version="1.1"><rect x="0" y="0" width="320" height="960" fill="#28364a"></rect><path d="M0 884L13.3 878.2C26.7 872.3 53.3 860.7 80 860.3C106.7 860 133.3 871 160 878.3C186.7 885.7 213.3 889.3 240 878.8C266.7 868.3 293.3 843.7 306.7 831.3L320 819L320 961L306.7 961C293.3 961 266.7 961 240 961C213.3 961 186.7 961 160 961C133.3 961 106.7 961 80 961C53.3 961 26.7 961 13.3 961L0 961Z" fill="#fff" stroke-linecap="round" stroke-linejoin="miter"></path></svg>