<svg id="visual" viewBox="0 0 1920 1080" width="1920" height="1080" xmlns="http://www.w3.org/2000/svg" xmlns:xlink="http://www.w3.org/1999/xlink" version="1.1"><rect x="0" y="0" width="1920" height="1080" fill="#28364a"></rect><path d="M0 893L64 868C128 843 256 793 384 767.3C512 741.7 640 740.3 768 768C896 795.7 1024 852.3 1152 880.7C1280 909 1408 909 1536 898.7C1664 888.3 1792 867.7 1856 857.3L1920 847L1920 1081L1856 1081C1792 1081 1664 1081 1536 1081C1408 1081 1280 1081 1152 1081C1024 1081 896 1081 768 1081C640 1081 512 1081 384 1081C256 1081 128 1081 64 1081L0 1081Z" fill="#fff" stroke-linecap="round" stroke-linejoin="miter"></path></svg>