<svg id="visual" viewBox="0 0 1920 1080" width="1920" height="1080" xmlns="http://www.w3.org/2000/svg" xmlns:xlink="http://www.w3.org/1999/xlink" version="1.1"><rect x="0" y="0" width="1920" height="1080" fill="#28364a"></rect><path d="M0 553L53.3 585.3C106.7 617.7 213.3 682.3 320 673.3C426.7 664.3 533.3 581.7 640 532.3C746.7 483 853.3 467 960 525.8C1066.7 584.7 1173.3 718.3 1280 728.2C1386.7 738 1493.3 624 1600 590.2C1706.7 556.3 1813.3 602.7 1866.7 625.8L1920 649L1920 1081L1866.7 1081C1813.3 1081 1706.7 1081 1600 1081C1493.3 1081 1386.7 1081 1280 1081C1173.3 1081 1066.7 1081 960 1081C853.3 1081 746.7 1081 640 1081C533.3 1081 426.7 1081 320 1081C213.3 1081 106.7 1081 53.3 1081L0 1081Z" fill="#1d2835" stroke-linecap="round" stroke-linejoin="miter"></path></svg>