<svg id="visual" viewBox="0 0 540 960" width="540" height="960" xmlns="http://www.w3.org/2000/svg" xmlns:xlink="http://www.w3.org/1999/xlink" version="1.1"><rect x="0" y="0" width="540" height="960" fill="#28364a"></rect><path d="M0 855L15 861.3C30 867.7 60 880.3 90 878.5C120 876.7 150 860.3 180 850.7C210 841 240 838 270 849.7C300 861.3 330 887.7 360 889.7C390 891.7 420 869.3 450 862.7C480 856 510 865 525 869.5L540 874L540 961L525 961C510 961 480 961 450 961C420 961 390 961 360 961C330 961 300 961 270 961C240 961 210 961 180 961C150 961 120 961 90 961C60 961 30 961 15 961L0 961Z" fill="#1d2835" stroke-linecap="round" stroke-linejoin="miter"></path></svg>