<svg id="visual" viewBox="0 0 540 960" width="540" height="960" xmlns="http://www.w3.org/2000/svg" xmlns:xlink="http://www.w3.org/1999/xlink" version="1.1"><rect x="0" y="0" width="540" height="960" fill="#273549"></rect><path d="M0 174L30 191.2C60 208.3 120 242.7 180 245.3C240 248 300 219 360 207.3C420 195.7 480 201.3 510 204.2L540 207L540 961L510 961C480 961 420 961 360 961C300 961 240 961 180 961C120 961 60 961 30 961L0 961Z" fill="#1e2938"></path><path d="M0 498L30 483.5C60 469 120 440 180 430.2C240 420.3 300 429.7 360 445.3C420 461 480 483 510 494L540 505L540 961L510 961C480 961 420 961 360 961C300 961 240 961 180 961C120 961 60 961 30 961L0 961Z" fill="#192330"></path><path d="M0 707L30 720.5C60 734 120 761 180 751.8C240 742.7 300 697.3 360 686.2C420 675 480 698 510 709.5L540 721L540 961L510 961C480 961 420 961 360 961C300 961 240 961 180 961C120 961 60 961 30 961L0 961Z" fill="#151d28"></path></svg>