<svg id="visual" viewBox="0 0 900 600" width="900" height="600" xmlns="http://www.w3.org/2000/svg" xmlns:xlink="http://www.w3.org/1999/xlink" version="1.1"><rect x="0" y="0" width="900" height="600" fill="#273549"></rect><path d="M0 250L21.5 228.8C43 207.7 86 165.3 128.8 153.8C171.7 142.3 214.3 161.7 257.2 174.3C300 187 343 193 385.8 188C428.7 183 471.3 167 514.2 152.2C557 137.3 600 123.7 642.8 128.2C685.7 132.7 728.3 155.3 771.2 163.5C814 171.7 857 165.3 878.5 162.2L900 159L900 601L878.5 601C857 601 814 601 771.2 601C728.3 601 685.7 601 642.8 601C600 601 557 601 514.2 601C471.3 601 428.7 601 385.8 601C343 601 300 601 257.2 601C214.3 601 171.7 601 128.8 601C86 601 43 601 21.5 601L0 601Z" fill="#1e2938"></path><path d="M0 230L21.5 231.8C43 233.7 86 237.3 128.8 247C171.7 256.7 214.3 272.3 257.2 273.2C300 274 343 260 385.8 261.2C428.7 262.3 471.3 278.7 514.2 278.5C557 278.3 600 261.7 642.8 258.3C685.7 255 728.3 265 771.2 273.2C814 281.3 857 287.7 878.5 290.8L900 294L900 601L878.5 601C857 601 814 601 771.2 601C728.3 601 685.7 601 642.8 601C600 601 557 601 514.2 601C471.3 601 428.7 601 385.8 601C343 601 300 601 257.2 601C214.3 601 171.7 601 128.8 601C86 601 43 601 21.5 601L0 601Z" fill="#1b2634"></path><path d="M0 343L21.5 349.7C43 356.3 86 369.7 128.8 371.3C171.7 373 214.3 363 257.2 360.5C300 358 343 363 385.8 374.3C428.7 385.7 471.3 403.3 514.2 401.8C557 400.3 600 379.7 642.8 358.8C685.7 338 728.3 317 771.2 303.7C814 290.3 857 284.7 878.5 281.8L900 279L900 601L878.5 601C857 601 814 601 771.2 601C728.3 601 685.7 601 642.8 601C600 601 557 601 514.2 601C471.3 601 428.7 601 385.8 601C343 601 300 601 257.2 601C214.3 601 171.7 601 128.8 601C86 601 43 601 21.5 601L0 601Z" fill="#192330"></path><path d="M0 417L21.5 419.8C43 422.7 86 428.3 128.8 424C171.7 419.7 214.3 405.3 257.2 400.7C300 396 343 401 385.8 415.3C428.7 429.7 471.3 453.3 514.2 463.5C557 473.7 600 470.3 642.8 453.8C685.7 437.3 728.3 407.7 771.2 397C814 386.3 857 394.7 878.5 398.8L900 403L900 601L878.5 601C857 601 814 601 771.2 601C728.3 601 685.7 601 642.8 601C600 601 557 601 514.2 601C471.3 601 428.7 601 385.8 601C343 601 300 601 257.2 601C214.3 601 171.7 601 128.8 601C86 601 43 601 21.5 601L0 601Z" fill="#17202c"></path><path d="M0 483L21.5 491.5C43 500 86 517 128.8 517.3C171.7 517.7 214.3 501.3 257.2 489.5C300 477.7 343 470.3 385.8 477C428.7 483.7 471.3 504.3 514.2 511.7C557 519 600 513 642.8 503.5C685.7 494 728.3 481 771.2 480.8C814 480.7 857 493.3 878.5 499.7L900 506L900 601L878.5 601C857 601 814 601 771.2 601C728.3 601 685.7 601 642.8 601C600 601 557 601 514.2 601C471.3 601 428.7 601 385.8 601C343 601 300 601 257.2 601C214.3 601 171.7 601 128.8 601C86 601 43 601 21.5 601L0 601Z" fill="#151d28"></path></svg>