<svg id="visual" viewBox="0 0 540 960" width="540" height="960" xmlns="http://www.w3.org/2000/svg" xmlns:xlink="http://www.w3.org/1999/xlink" version="1.1"><rect x="0" y="0" width="540" height="960" fill="#8BA1C1"></rect><path d="M0 508L45 459.7C90 411.3 180 314.7 270 284.5C360 254.3 450 290.7 495 308.8L540 327L540 961L495 961C450 961 360 961 270 961C180 961 90 961 45 961L0 961Z" fill="#5979a6"></path><path d="M0 461L45 495.3C90 529.7 180 598.3 270 586C360 573.7 450 480.3 495 433.7L540 387L540 961L495 961C450 961 360 961 270 961C180 961 90 961 45 961L0 961Z" fill="#3f5676"></path><path d="M0 731L45 745.3C90 759.7 180 788.3 270 761.7C360 735 450 653 495 612L540 571L540 961L495 961C450 961 360 961 270 961C180 961 90 961 45 961L0 961Z" fill="#273549"></path></svg>